<?xml version="1.0" encoding="UTF-8"?>
<svg id="Layer_2" data-name="Layer 2" xmlns="http://www.w3.org/2000/svg" viewBox="0 0 523.42 218.58">
  <defs>
    <style>
      .cls-1 {
        fill: #00b0ae;
      }

      .cls-2 {
        fill: #00205c;
      }

      .cls-3 {
        fill: #f79321;
      }
    </style>
  </defs>
  <g id="Layer_1-2" data-name="Layer 1">
    <g>
      <g>
        <g>
          <path class="cls-2" d="M87.74,136.27c-.88-1.85-2.09-3.59-3.62-5.12l-4.37-4.37-8.74-8.74-4.37-4.37-8.74,8.74h0s-8.74,8.74-8.74,8.74l4.37,4.37,.75,.75,7.99,7.99,8.74,8.74,4.37,4.37c1.21,1.21,1.81,2.79,1.81,4.38,0,1.58-.6,3.16-1.81,4.37l4.37-4.37,4.37-4.37c1.53-1.53,2.74-3.27,3.62-5.12,2.41-5.04,2.41-10.95,0-15.99Z"/>
          <path class="cls-2" d="M66.68,183.65l-.08-.09-4.33-4.33-8.74-8.74-8.74-8.74-4.33-4.33-.08-.07-4.33-4.33-.75-.75-3.62-3.62-1.17,1.17-7.57,7.57c-1.55,1.55-2.61,3.42-3.16,5.39-.6,2.14-.61,4.41-.04,6.55,.28,1.07,.71,2.1,1.29,3.08,0,0,0,0,0,0,.52,.88,1.15,1.71,1.91,2.46l4.37,4.37,8.74,8.74,.75,.75,8,7.99,8.74,8.74,4.37,4.37c1.21,1.21,1.81,2.79,1.81,4.38,0,1.58-.61,3.16-1.81,4.37l4.37-4.37,4.33-4.33,.08-.09c1.51-1.52,2.71-3.24,3.58-5.08,2.41-5.04,2.41-10.95,0-15.99-.87-1.83-2.07-3.55-3.58-5.08Z"/>
          <path class="cls-2" d="M21.01,102.46s0,0,0,0c.52,.88,1.15,1.71,1.91,2.46l4.37,4.37,1.17-1.17,7.57-7.57,7.57-7.57,1.17-1.17-4.33-4.33-.08-.07-4.33-4.33-.75-.75-3.62-3.62-1.17,1.17-7.57,7.57c-1.55,1.55-2.61,3.42-3.16,5.39-.6,2.14-.61,4.41-.04,6.56,.29,1.07,.71,2.1,1.29,3.08Z"/>
        </g>
        <path class="cls-3" d="M87.75,66.32c-.88-1.83-2.07-3.55-3.58-5.08l-.09-.08-4.33-4.33-4.37-4.37c1.21,1.21,1.81,2.78,1.81,4.37,0,1.58-.6,3.17-1.81,4.38l-4.37,4.37-8.74,8.74-7.99,7.99-.75,.75-8.74,8.74-1.17,1.17-7.57,7.57-7.57,7.57-1.17,1.17-8.74,8.74-8.74,8.74-4.33,4.33-.08,.09c-1.51,1.52-2.71,3.24-3.58,5.08-2.41,5.04-2.41,10.95,0,15.99,.87,1.83,2.07,3.55,3.58,5.08l.08,.08,4.33,4.33,4.37,4.37,4.37,4.37c-1.59-1.59-2.66-3.51-3.2-5.54-.22-.82-.35-1.65-.4-2.49-.19-3.4,1.01-6.86,3.6-9.45l8.74-8.74,7.99-7.99,.75-.75,8.74-8.74,8.74-8.74,8.74-8.74,8.74-8.74,8.74-8.74,4.37-4.37c1.53-1.53,2.74-3.27,3.62-5.12,2.41-5.04,2.41-10.95,0-15.99Z"/>
        <path class="cls-1" d="M70.26,13.86c-.88-1.85-2.09-3.58-3.62-5.12l-4.37-4.37L57.89,0c1.21,1.21,1.81,2.78,1.81,4.37,0,1.58-.6,3.15-1.79,4.36l-4.39,4.39-8.74,8.74-8,7.99-.75,.75-8.74,8.74-8.74,8.74-8.74,8.74-4.29,4.29s-.06,.05-.09,.08c-.03,.03-.06,.06-.08,.09-1.49,1.51-2.67,3.22-3.54,5.03-2.41,5.04-2.41,10.95,0,15.99,.87,1.83,2.07,3.55,3.58,5.08l.08,.09,4.33,4.33,4.37,4.37,4.37,4.37c-1.59-1.59-2.66-3.51-3.2-5.54-.22-.82-.35-1.65-.4-2.49-.19-3.4,1.01-6.86,3.6-9.45l8.74-8.74,8-8,.75-.75,8.74-8.74,8.74-8.74,8.74-8.74,4.37-4.37c1.53-1.53,2.74-3.27,3.62-5.12,2.41-5.04,2.41-10.95,0-15.99Z"/>
      </g>
      <g>
        <g>
          <polygon class="cls-2" points="352.28 94.41 351.34 100.13 342.56 100.13 338.09 127.41 326.01 127.41 326.91 121.98 326.01 127.41 338.09 127.41 342.56 100.13 351.34 100.13 352.28 94.41"/>
          <rect class="cls-2" x="348.26" y="88" width="0" height="8.71" transform="translate(205.26 423.06) rotate(-81.47)"/>
          <g>
            <polygon class="cls-2" points="138.04 80.59 133.62 80.58 125.75 127.27 125.75 127.27 133.62 80.59 138.04 80.59"/>
            <path class="cls-2" d="M139.98,80.59c.15,0,.31,.01,.46,.03-.19-.02-.34-.02-.46-.03Z"/>
            <path class="cls-2" d="M139.82,80.59h.08s-.06,0-.08,0Z"/>
            <path class="cls-2" d="M139.96,80.59h-.06s.05,0,.08,0c0,0-.01,0-.02,0Z"/>
            <polygon class="cls-2" points="357.8 82.7 357.15 86.48 356.5 86.27 357.16 86.48 357.8 82.7"/>
            <path class="cls-2" d="M333.27,85.94l-.77,3.3,.78-3.3c1.16-4.09,3.7-6.31,6.44-7.51-2.74,1.2-5.28,3.41-6.44,7.51Z"/>
            <polygon class="cls-2" points="352.61 92.36 352.61 92.36 352.28 94.41 352.61 92.36"/>
            <polygon class="cls-2" points="325.98 100.13 326.8 95.17 325.98 100.13 325.98 100.13"/>
            <polygon class="cls-2" points="343.9 92.35 344.05 91.41 343.9 92.35 343.9 92.35"/>
            <path class="cls-2" d="M349.07,84.62c-3.22,0-4.21,2.6-4.68,4.89,.47-2.28,1.47-4.88,4.68-4.88,1.63,0,3.28,.36,4.89,.85-1.61-.49-3.26-.85-4.89-.85Z"/>
            <path class="cls-2" d="M144.59,85.95s0,0,0,0v-.05s.04-.1,.07-.28c.08-.53,.11-1.77-.92-3.23-.91-1.28-2.31-1.66-3.19-1.76,.2,.02,.39,.06,.58,.11,2.26,.58,3.83,2.79,3.47,5.21Z"/>
          </g>
          <g>
            <path class="cls-2" d="M352.28,94.41l.34-2.05h-8.71s0,0,0,0l.16-.94,.08-.51c.07-.43,.15-.91,.25-1.39,.47-2.28,1.47-4.89,4.68-4.89,1.63,0,3.28,.36,4.89,.85,.43,.13,.87,.27,1.3,.42l1.24,.38,.66,.2,.64-3.78,.61-3.59-.31-.08c-2.79-.87-6.39-2.17-11.2-2.03-1.94,.06-4.65,.31-7.19,1.42-2.74,1.2-5.28,3.42-6.44,7.51l-.78,3.3-.73,3.11h-4.5l-.46,2.81-.81,4.96h0s4.5,0,4.5,0l-2.51,15.3-1.96,11.98,.89-5.43-.89,5.43h12.07l4.47-27.28h8.78l.94-5.72Z"/>
            <path class="cls-2" d="M150.87,108.74l14.38-16.51h0s-12.74,0-12.74,0l-11.26,13.62,2.29-13.65,1.03-6.14s0-.06,.01-.1c0,0,0,0,0,0,.35-2.42-1.21-4.64-3.47-5.21-.11-.03-.22-.05-.33-.06-.08-.02-.16-.04-.25-.05-.04,0-.07,0-.11-.01-.16-.02-.32-.03-.48-.03h-6.34l-7.87,46.68h0s11.91,.05,11.91,.05l2.5-14.44s1.72,4.47,7.2,9.25c6.78,5.92,12.11,5.92,12.11,5.92h0s0,0,0,0l1.74-10.26s-2.18-.93-4.5-2.51c-4.11-2.82-5.82-6.51-5.84-6.54Z"/>
            <path class="cls-2" d="M178.15,92.49c-.46-.14-.86-.21-1.15-.24-.26-.03-.43-.03-.43-.03h-5.64l-5.75,35.06h11.95l4.82-28.67s.07-.2,.1-.34c.04-.18,.08-.45,.07-.8-.02-.69-.24-1.73-1.13-2.97-.82-1.15-1.92-1.72-2.84-2.01Z"/>
            <path class="cls-2" d="M234.81,91.4c-4.56,.03-8.13,1.23-11.52,4.48l-.81,.74-.33-.93c-1.39-3.15-4.35-4.3-8.85-4.3-4.72,0-10.14,2.73-11.79,5.35l.76-4.52-12.16-.02-5.75,35.07h12.07l3.07-18.71c.25-1.52,2.02-7.98,8.36-7.98,2.25,0,2.94,2.11,2.4,5.37l-3.57,21.3h12.04l3.18-19.18c.25-1.52,1.77-7.49,8.16-7.49,1.25,0,3.33,1.82,2.8,5.08l-3.3,21.6h11.81l4.34-26.54c1.06-6.48-3.57-9.41-10.9-9.35Z"/>
            <path class="cls-2" d="M264.23,94.5c-.82-1.15-1.92-1.72-2.84-2.01-.46-.14-.86-.21-1.15-.24-.26-.03-.43-.03-.43-.03h-5.64l-5.75,35.06h12.07l4.84-28.66s.04-.79,.03-1.14c-.02-.69-.24-1.73-1.13-2.97Z"/>
            <path class="cls-2" d="M304.2,93.15c-2.95-1.41-6.92-1.76-10.15-1.76-5.68,0-11.39,.84-16.94,2l-1.59,.32-1.46,8.33s9.68-3.82,16-3.74c1.38,.02,2.99-.19,4.18,.34,1.17,.52,1.7,1.22,1.43,2.9-.2,1.22-1.06,2.23-3.61,3-2.54,.77-5.84,1.3-9.18,2.04-6.69,1.48-14.25,3.91-15.41,11-1.18,7.22,2.72,10.62,11.38,10.63,4.57,0,8.14-1.6,9.69-2.2l1.87-5.94s-3.94,1.59-6.87,1.59c-3.41,0-5.01-1.18-4.58-3.82,.41-2.51,3.17-3.82,7.03-4.92,1.9-.54,3.88-1.05,5.68-1.48,1.69-.4,2.56-1.05,2.56-1.05l-2.92,16.89h12.03l4.5-26.33c.69-4.19-.81-6.43-3.65-7.79Z"/>
            <path class="cls-2" d="M417.86,92.3c-2.8-.07-4.62,.58-6.48,2.36l-1.4,2.07,.77-4.51h-12.22s-5.75,35.05-5.75,35.05h12.07l2.94-17.91c.95-6.12,6.05-8.81,9.94-9.12,1.36-.11,2.87-.07,2.87-.07l1.37-7.88s-2.57,.03-4.1,0Z"/>
            <path class="cls-2" d="M519.6,93.15c-2.95-1.41-6.92-1.76-10.15-1.76-5.68,0-11.39,.84-16.94,2l-.59,.12-2.24,7.57,1-.33c4.87-1.62,9.92-2.82,14.89-2.82,1.38,0,2.99,.12,4.17,.65,1.17,.52,1.96,1.45,1.69,3.13-.2,1.21-1.42,2.05-3.96,2.82-2.54,.77-5.84,1.3-9.18,2.04-6.69,1.48-14.25,3.91-15.41,11-1.18,7.22,2.72,10.62,11.38,10.63,4.57,0,8.14-1.6,9.69-2.2l2.17-6.52s-4.24,2.17-7.17,2.17c-3.41,0-5.01-1.18-4.58-3.82,.41-2.51,3.17-3.82,7.03-4.92,1.9-.54,3.9-.99,5.68-1.48,.69-.19,1.39-.4,2.07-.64l.61-.45-3.03,16.92h12.03l4.5-26.33c.69-4.19-.81-6.43-3.65-7.79Z"/>
            <path class="cls-2" d="M386.66,93.38c-2.95-1.41-6.92-1.76-10.15-1.76-5.68,0-11.39,.84-16.94,2l-1.59,.32-1.46,8.33s9.68-3.82,16-3.74c1.38,.02,2.99-.19,4.18,.34,1.17,.52,1.7,1.22,1.43,2.9-.2,1.21-1.06,2.23-3.61,3-2.54,.77-5.84,1.3-9.18,2.04-6.69,1.48-14.25,3.91-15.41,11-1.18,7.22,2.72,10.62,11.38,10.63,4.57,0,8.14-1.6,9.69-2.2l1.87-5.94s-3.94,1.6-6.87,1.6c-3.41,0-5.01-1.18-4.58-3.82,.41-2.51,3.17-3.82,7.03-4.92,1.9-.54,3.88-1.05,5.68-1.48,1.69-.4,2.56-1.05,2.56-1.05l-2.92,16.89h12.03l4.5-26.33c.69-4.19-.81-6.43-3.65-7.79Z"/>
            <path class="cls-2" d="M471.77,91.34c-4.56,.03-8.13,1.23-11.52,4.48l-.81,.74-.33-.93c-1.39-3.15-4.35-4.3-8.85-4.3-4.72,0-10.14,2.73-11.8,5.35l.76-4.52-12.16-.02-5.75,35.07h12.07l3.07-18.7c.25-1.52,2.02-7.98,8.36-7.98,2.25,0,2.93,2.11,2.4,5.37l-3.57,21.3h12.04l3.18-19.18c.25-1.52,1.77-7.49,8.16-7.49,1.25,0,3.33,1.82,2.8,5.08l-3.3,21.6,11.33-.02,4.49-26.57c1.06-6.48-3.24-9.36-10.57-9.3Z"/>
          </g>
        </g>
        <g>
          <path class="cls-1" d="M132.29,159.02h7.14l-.73,4.14h-12.59l3.95-22.38h5.45l-3.22,18.24Z"/>
          <path class="cls-1" d="M145.61,149.42c.94-1.38,2.06-2.44,3.38-3.19,1.32-.74,2.71-1.12,4.18-1.12,1.25,0,2.31,.25,3.16,.76,.85,.51,1.47,1.18,1.85,2.01l.45-2.52h5.45l-3.16,17.79h-5.45l.48-2.52c-.68,.83-1.54,1.5-2.58,2.01-1.04,.51-2.19,.76-3.44,.76s-2.36-.29-3.33-.86c-.97-.57-1.72-1.39-2.25-2.44-.53-1.05-.8-2.29-.8-3.71,0-.68,.06-1.4,.19-2.17,.32-1.83,.95-3.43,1.88-4.81Zm11.54,3.79c0-1.04-.3-1.86-.91-2.45-.61-.6-1.38-.89-2.31-.89-1.08,0-2.07,.39-2.96,1.16-.89,.78-1.46,1.84-1.69,3.2-.06,.38-.1,.73-.1,1.05,0,1.04,.3,1.86,.91,2.47,.61,.61,1.37,.91,2.28,.91,1.08,0,2.07-.39,2.96-1.18,.89-.79,1.47-1.86,1.72-3.22,.06-.38,.1-.73,.1-1.05Z"/>
          <path class="cls-1" d="M177.49,145.88c1.04-.51,2.18-.76,3.41-.76,1.91,0,3.46,.62,4.64,1.86,1.18,1.24,1.77,2.94,1.77,5.09,0,.68-.06,1.4-.19,2.17-.32,1.83-.95,3.44-1.88,4.83-.94,1.39-2.06,2.47-3.38,3.22-1.32,.76-2.71,1.13-4.18,1.13-1.25,0-2.31-.25-3.16-.75-.85-.5-1.47-1.16-1.85-1.99l-.45,2.49h-5.45l4.18-23.59h5.45l-1.5,8.32c.68-.83,1.54-1.5,2.58-2.01Zm4.21,7.36c0-1.06-.3-1.89-.91-2.49-.61-.6-1.38-.89-2.31-.89-1.08,0-2.07,.39-2.96,1.18-.89,.79-1.47,1.86-1.72,3.22-.06,.38-.1,.73-.1,1.05,0,1.04,.3,1.86,.89,2.45,.59,.6,1.36,.89,2.3,.89,1.08,0,2.08-.4,2.98-1.2,.9-.8,1.48-1.88,1.74-3.24,.06-.36,.1-.69,.1-.99Z"/>
          <path class="cls-1" d="M194.39,162.49c-1.19-.62-2.11-1.49-2.76-2.61-.65-1.13-.97-2.43-.97-3.92,0-2.02,.48-3.86,1.43-5.52,.96-1.66,2.27-2.96,3.95-3.91,1.68-.95,3.55-1.42,5.61-1.42,1.53,0,2.9,.31,4.1,.94,1.2,.63,2.13,1.5,2.79,2.63,.66,1.13,.99,2.43,.99,3.92,0,2.04-.48,3.88-1.45,5.53-.97,1.65-2.3,2.94-3.98,3.87-1.69,.94-3.57,1.4-5.63,1.4-1.53,0-2.89-.31-4.08-.92Zm7.25-4.57c.71-.54,1.26-1.24,1.66-2.1,.39-.86,.59-1.76,.59-2.69,0-1.06-.29-1.88-.86-2.45-.57-.57-1.3-.86-2.17-.86-.91,0-1.72,.27-2.41,.81-.69,.54-1.23,1.25-1.61,2.12-.38,.87-.57,1.79-.57,2.74,0,1.04,.28,1.84,.83,2.41,.55,.56,1.26,.85,2.14,.85s1.69-.27,2.41-.81Z"/>
          <path class="cls-1" d="M223.41,146.09c1.07-.61,2.19-.91,3.36-.91l-1.02,5.77h-1.5c-1.36,0-2.43,.29-3.22,.88-.79,.59-1.31,1.61-1.56,3.08l-1.47,8.26h-5.45l3.12-17.79h5.45l-.57,3.22c.83-1.06,1.78-1.9,2.85-2.5Z"/>
          <path class="cls-1" d="M230.51,149.42c.94-1.38,2.06-2.44,3.38-3.19,1.32-.74,2.71-1.12,4.18-1.12,1.25,0,2.31,.25,3.16,.76,.85,.51,1.47,1.18,1.85,2.01l.45-2.52h5.45l-3.16,17.79h-5.45l.48-2.52c-.68,.83-1.54,1.5-2.58,2.01-1.04,.51-2.19,.76-3.44,.76s-2.36-.29-3.33-.86c-.97-.57-1.72-1.39-2.25-2.44-.53-1.05-.8-2.29-.8-3.71,0-.68,.06-1.4,.19-2.17,.32-1.83,.95-3.43,1.88-4.81Zm11.54,3.79c0-1.04-.3-1.86-.91-2.45-.61-.6-1.38-.89-2.31-.89-1.08,0-2.07,.39-2.96,1.16-.89,.78-1.46,1.84-1.69,3.2-.06,.38-.1,.73-.1,1.05,0,1.04,.3,1.86,.91,2.47,.61,.61,1.37,.91,2.28,.91,1.08,0,2.07-.39,2.97-1.18,.89-.79,1.47-1.86,1.72-3.22,.06-.38,.1-.73,.1-1.05Z"/>
          <path class="cls-1" d="M259.07,157.04c-.02,.11-.03,.24-.03,.41,0,.38,.11,.66,.33,.83,.22,.17,.59,.26,1.1,.26h1.94l-.83,4.62h-2.77c-3.57,0-5.36-1.5-5.36-4.5,0-.45,.05-1.01,.16-1.69l1.28-7.08h-2.17l.8-4.53h2.17l.77-4.34h5.45l-.77,4.34h3.57l-.8,4.53h-3.57l-1.28,7.14Z"/>
          <path class="cls-1" d="M270.58,162.49c-1.19-.62-2.11-1.49-2.76-2.61-.65-1.13-.97-2.43-.97-3.92,0-2.02,.48-3.86,1.43-5.52,.96-1.66,2.27-2.96,3.95-3.91,1.68-.95,3.55-1.42,5.61-1.42,1.53,0,2.9,.31,4.1,.94,1.2,.63,2.13,1.5,2.79,2.63,.66,1.13,.99,2.43,.99,3.92,0,2.04-.48,3.88-1.45,5.53-.97,1.65-2.3,2.94-3.98,3.87-1.69,.94-3.57,1.4-5.63,1.4-1.53,0-2.89-.31-4.08-.92Zm7.25-4.57c.71-.54,1.26-1.24,1.66-2.1,.39-.86,.59-1.76,.59-2.69,0-1.06-.29-1.88-.86-2.45-.57-.57-1.3-.86-2.17-.86-.91,0-1.72,.27-2.41,.81-.69,.54-1.23,1.25-1.61,2.12-.38,.87-.57,1.79-.57,2.74,0,1.04,.28,1.84,.83,2.41,.55,.56,1.26,.85,2.14,.85s1.69-.27,2.41-.81Z"/>
          <path class="cls-1" d="M299.61,146.09c1.07-.61,2.19-.91,3.36-.91l-1.02,5.77h-1.5c-1.36,0-2.43,.29-3.22,.88-.79,.59-1.31,1.61-1.56,3.08l-1.47,8.26h-5.45l3.12-17.79h5.45l-.57,3.22c.83-1.06,1.78-1.9,2.85-2.5Z"/>
          <path class="cls-1" d="M312.88,145.37l-3.12,17.79h-5.45l3.12-17.79h5.45Zm-4.38-2.53c-.5-.46-.75-1.04-.75-1.74,0-.96,.37-1.77,1.12-2.45s1.65-1.02,2.71-1.02c.85,0,1.52,.23,2.01,.69,.49,.46,.73,1.05,.73,1.77,0,.94-.37,1.74-1.12,2.42-.74,.68-1.64,1.02-2.68,1.02-.85,0-1.53-.23-2.02-.69Z"/>
          <path class="cls-1" d="M336.32,145.37l-3.12,17.79h-5.45l.41-2.42c-.7,.79-1.56,1.42-2.57,1.9-1.01,.48-2.09,.72-3.24,.72-1.79,0-3.19-.51-4.21-1.51-1.02-1.01-1.53-2.42-1.53-4.22,0-.68,.05-1.3,.16-1.85l1.85-10.39h5.42l-1.69,9.66c-.06,.34-.1,.67-.1,.99,0,.89,.25,1.58,.75,2.06,.5,.48,1.2,.72,2.09,.72,1.02,0,1.89-.3,2.6-.91,.71-.61,1.18-1.47,1.42-2.6l1.75-9.92h5.45Z"/>
          <path class="cls-1" d="M369.39,146.7c1.07,1.01,1.61,2.42,1.61,4.22,0,.55-.06,1.17-.19,1.85l-1.85,10.39h-5.42l1.72-9.66c.04-.21,.06-.5,.06-.86,0-.89-.25-1.57-.75-2.04-.5-.47-1.2-.7-2.09-.7-1.06,0-1.96,.31-2.68,.94-.72,.63-1.18,1.51-1.37,2.66l-1.72,9.66h-5.42l1.72-9.66c.04-.21,.06-.5,.06-.86,0-.89-.25-1.57-.75-2.04-.5-.47-1.2-.7-2.09-.7-1.06,0-1.96,.31-2.68,.94-.72,.63-1.18,1.51-1.37,2.66v-.16l-1.72,9.82h-5.45l3.12-17.79h5.45l-.38,2.26c.68-.76,1.5-1.37,2.47-1.8,.97-.44,2.01-.65,3.14-.65,1.36,0,2.51,.29,3.46,.86,.95,.57,1.62,1.4,2.02,2.49,.79-1,1.76-1.81,2.93-2.42,1.17-.62,2.39-.92,3.67-.92,1.91,0,3.41,.5,4.48,1.51Z"/>
          <path class="cls-3" d="M403.01,157.9l4.46,5.26h-6.34l-1.72-2.01c-2.32,1.57-4.92,2.36-7.81,2.36-2.34,0-4.18-.52-5.53-1.55s-2.02-2.43-2.02-4.19,.55-3.18,1.64-4.49c1.09-1.32,2.56-2.37,4.38-3.16-.66-1.02-.99-2.02-.99-3,0-1.3,.34-2.45,1.02-3.46,.68-1.01,1.63-1.79,2.84-2.34,1.21-.55,2.58-.83,4.11-.83,1.91,0,3.38,.44,4.42,1.31,1.03,.87,1.55,1.98,1.55,3.32,0,.28-.03,.59-.1,.96h-5.1c.02-.08,.03-.21,.03-.38,0-.4-.14-.72-.41-.94-.28-.22-.63-.33-1.05-.33-.57,0-1.06,.19-1.47,.56-.4,.37-.61,.85-.61,1.42,0,.74,.43,1.65,1.28,2.71l4.49,5.32,.57-.89,1.53-2.01h5.48l-2.01,2.77c-.94,1.47-1.82,2.67-2.65,3.6Zm-6.38,.03l-4.11-4.81c-.91,.43-1.63,.95-2.14,1.58-.51,.63-.76,1.31-.76,2.06,0,.7,.27,1.27,.81,1.71,.54,.44,1.29,.65,2.25,.65,1.42,0,2.74-.39,3.95-1.18Z"/>
          <path class="cls-1" d="M433.58,151.75l6.98,11.41h-6.66l-5.77-9.88-1.75,9.88h-5.45l3.95-22.38h5.45l-1.72,9.82,9.21-9.82h6.38l-10.62,10.97Z"/>
          <path class="cls-1" d="M454.69,139.57l-4.18,23.59h-5.45l4.18-23.59h5.45Z"/>
          <path class="cls-1" d="M464.95,145.37l-3.12,17.79h-5.45l3.12-17.79h5.45Zm-4.38-2.53c-.5-.46-.75-1.04-.75-1.74,0-.96,.37-1.77,1.12-2.45s1.65-1.02,2.71-1.02c.85,0,1.52,.23,2.01,.69,.49,.46,.73,1.05,.73,1.77,0,.94-.37,1.74-1.12,2.42-.74,.68-1.64,1.02-2.68,1.02-.85,0-1.53-.23-2.02-.69Z"/>
          <path class="cls-1" d="M485.9,146.68c1.02,1,1.53,2.39,1.53,4.18,0,.6-.06,1.23-.19,1.91l-1.85,10.39h-5.42l1.72-9.66c.06-.36,.1-.68,.1-.96,0-.89-.25-1.58-.75-2.07-.5-.49-1.2-.73-2.09-.73-1.06,0-1.96,.33-2.68,.99-.72,.66-1.19,1.58-1.4,2.77v-.16l-1.72,9.82h-5.45l3.12-17.79h5.45l-.41,2.39c.7-.79,1.56-1.41,2.57-1.88,1.01-.47,2.1-.7,3.27-.7,1.79,0,3.19,.5,4.21,1.5Z"/>
          <path class="cls-1" d="M499.67,145.37l-3.12,17.79h-5.45l3.12-17.79h5.45Zm-4.38-2.53c-.5-.46-.75-1.04-.75-1.74,0-.96,.37-1.77,1.12-2.45s1.65-1.02,2.71-1.02c.85,0,1.52,.23,2.01,.69,.49,.46,.73,1.05,.73,1.77,0,.94-.37,1.74-1.12,2.42-.74,.68-1.64,1.02-2.68,1.02-.85,0-1.53-.23-2.02-.69Z"/>
          <path class="cls-1" d="M514.14,154.3l5.9,8.86h-6.76l-4.11-7.43-1.31,7.43h-5.45l4.18-23.59h5.45l-2.3,13.01,6.63-7.21h6.73l-8.96,8.93Z"/>
        </g>
      </g>
    </g>
  </g>
</svg>